
<svg xmlns="http://www.w3.org/2000/svg" viewBox="0 0 512 512">
  <rect width="512" height="512" fill="#4285F4" rx="64"/>
  <g fill="white">
    <!-- Calendar grid -->
    <rect x="80" y="180" width="352" height="232" fill="none" stroke="white" stroke-width="8" rx="16"/>

    <!-- Calendar header -->
    <rect x="80" y="140" width="352" height="60" fill="white" rx="16"/>

    <!-- Days of week -->
    <g fill="#4285F4" font-family="Arial" font-size="24" font-weight="bold">
      <text x="110" y="175" text-anchor="middle">S</text>
      <text x="160" y="175" text-anchor="middle">M</text>
      <text x="210" y="175" text-anchor="middle">T</text>
      <text x="260" y="175" text-anchor="middle">W</text>
      <text x="310" y="175" text-anchor="middle">T</text>
      <text x="360" y="175" text-anchor="middle">F</text>
      <text x="410" y="175" text-anchor="middle">S</text>
    </g>

    <!-- Calendar dates with tasks -->
    <circle cx="110" cy="230" r="4"/>
    <circle cx="160" cy="230" r="4"/>
    <circle cx="210" cy="230" r="4" fill="#EA4335"/>
    <circle cx="260" cy="230" r="4"/>
    <circle cx="310" cy="230" r="4" fill="#FBBC04"/>

    <circle cx="110" cy="280" r="4"/>
    <circle cx="160" cy="280" r="4" fill="#34A853"/>
    <circle cx="210" cy="280" r="4"/>
    <circle cx="260" cy="280" r="4" fill="#EA4335"/>
    <circle cx="310" cy="280" r="4"/>

    <!-- Checkmark for completed tasks -->
    <path d="M320 340 L340 360 L380 300" fill="none" stroke="#34A853" stroke-width="12" stroke-linecap="round" stroke-linejoin="round"/>
  </g>
</svg>
